<?xml version="1.0" encoding="UTF-8" standalone="no"?>
<!-- Created with Inkscape (http://www.inkscape.org/) -->

<svg
   xmlns:dc="http://purl.org/dc/elements/1.1/"
   xmlns:cc="http://creativecommons.org/ns#"
   xmlns:rdf="http://www.w3.org/1999/02/22-rdf-syntax-ns#"
   xmlns:svg="http://www.w3.org/2000/svg"
   xmlns="http://www.w3.org/2000/svg"
   xmlns:sodipodi="http://sodipodi.sourceforge.net/DTD/sodipodi-0.dtd"
   xmlns:inkscape="http://www.inkscape.org/namespaces/inkscape"
   width="23.118999mm"
   height="23.118999mm"
   viewBox="0 0 23.118999 23.119"
   version="1.1"
   id="svg8"
   inkscape:version="0.92.4 (5da689c313, 2019-01-14)"
   sodipodi:docname="ELN_logo_1.svg">
  <defs
     id="defs2" />
  <sodipodi:namedview
     id="base"
     pagecolor="#ffffff"
     bordercolor="#666666"
     borderopacity="1.0"
     inkscape:pageopacity="0.0"
     inkscape:pageshadow="2"
     inkscape:zoom="4"
     inkscape:cx="46.626359"
     inkscape:cy="63.012336"
     inkscape:document-units="mm"
     inkscape:current-layer="layer1"
     showgrid="false"
     inkscape:window-width="1920"
     inkscape:window-height="1017"
     inkscape:window-x="-8"
     inkscape:window-y="32"
     inkscape:window-maximized="1"
     fit-margin-top="0"
     fit-margin-left="0"
     fit-margin-right="0"
     fit-margin-bottom="0" />
  <metadata
     id="metadata5">
    <rdf:RDF>
      <cc:Work
         rdf:about="">
        <dc:format>image/svg+xml</dc:format>
        <dc:type
           rdf:resource="http://purl.org/dc/dcmitype/StillImage" />
        <dc:title></dc:title>
      </cc:Work>
    </rdf:RDF>
  </metadata>
  <g
     inkscape:label="Layer 1"
     inkscape:groupmode="layer"
     id="layer1"
     style="opacity:1"
     transform="translate(-59.839396,-122.06852)">
    <circle
       id="path59"
       cx="71.398895"
       cy="133.62802"
       style="fill:#c8306f;fill-opacity:1;stroke-width:0.19988333"
       r="11.5595"
       inkscape:export-xdpi="549.33002"
       inkscape:export-ydpi="549.33002" />
    <g
       id="g36"
       transform="matrix(0.26458333,0,0,0.26458333,86.289629,103.8812)">
      <path
         id="path10"
         d="m 49,14.5 v -2 H 42.0047 V 9.9989624 H 39.5 V 3 h -2 v 6.9989624 h -3 V 3 h -2 v 6.9989624 h -3 V 3 h -2 v 6.9989624 h -3 V 3 h -2 v 6.9989624 h -3 V 3 h -2 v 6.9989624 h -3 V 3 h -2 V 9.9989624 H 10.0047 V 41.998962 h 32 V 39.5 H 49 v -2 h -6.9953 v -3 H 49 v -2 h -6.9953 v -3 H 49 v -2 h -6.9953 v -3 H 49 v -2 h -6.9953 v -3 H 49 v -2 h -6.9953 v -3 z m -35.707031,0.207031 1.414062,-1.414062 1.430176,1.430176 -1.414062,1.414062 z M 26,36.5 h -7 c -1.654297,0 -3,-1.345703 -3,-3 v -7 h 2 v 7 c 0,0.551269 0.44873,1 1,1 h 7 z m 7,-18 h -7.293457 v -2 H 33 c 1.654297,0 3,1.345703 3,3 v 7 h -2 v -7 c 0,-0.55127 -0.448731,-1 -1,-1 z m 4.292969,20.207031 -1.429688,-1.429687 1.414063,-1.414063 1.429687,1.429688 z"
         inkscape:connector-curvature="0" />
      <rect
         id="rect12"
         y="12.5"
         x="3"
         width="7"
         height="2" />
      <rect
         id="rect14"
         y="17.5"
         x="3"
         width="7"
         height="2" />
      <rect
         id="rect16"
         y="22.5"
         x="3"
         width="7"
         height="2" />
      <rect
         id="rect18"
         y="27.5"
         x="3"
         width="7"
         height="2" />
      <rect
         id="rect20"
         y="32.5"
         x="3"
         width="7"
         height="2" />
      <rect
         id="rect22"
         y="37.5"
         x="3"
         width="7"
         height="2" />
      <rect
         id="rect24"
         y="42"
         x="37.5"
         width="2"
         height="7" />
      <rect
         id="rect26"
         y="42"
         x="32.5"
         width="2"
         height="7" />
      <rect
         id="rect28"
         y="42"
         x="27.5"
         width="2"
         height="7" />
      <rect
         id="rect30"
         y="42"
         x="22.5"
         width="2"
         height="7" />
      <rect
         id="rect32"
         y="42"
         x="17.5"
         width="2"
         height="7" />
      <rect
         id="rect34"
         y="42"
         x="12.5"
         width="2"
         height="7" />
    </g>
    <g
       id="g4682"
       transform="matrix(0.26458333,0,0,0.26458333,86.471539,118.16668)">
      <rect
         height="2"
         width="7"
         x="3"
         y="17.5"
         id="rect4579" />
      <rect
         height="2"
         width="7"
         x="3"
         y="22.5"
         id="rect4581" />
      <rect
         height="2"
         width="7"
         x="3"
         y="27.5"
         id="rect4583" />
      <rect
         height="2"
         width="7"
         x="3"
         y="32.5"
         id="rect4585" />
      <rect
         height="2"
         width="7"
         x="3"
         y="37.5"
         id="rect4587" />
      <g
         id="g4660">
        <g
           id="g4649">
          <path
             inkscape:connector-curvature="0"
             d="m 49,14.5 v -2 H 42.0047 V 9.9989624 H 39.5 V 3 h -2 v 6.9989624 h -3 V 3 h -2 v 6.9989624 h -3 V 3 h -2 v 6.9989624 h -3 V 3 h -2 v 6.9989624 h -3 V 3 h -2 v 6.9989624 h -3 V 3 h -2 V 9.9989624 H 10.0047 V 41.998962 h 32 V 39.5 H 49 v -2 h -6.9953 v -3 H 49 v -2 h -6.9953 v -3 H 49 v -2 h -6.9953 v -3 H 49 v -2 h -6.9953 v -3 H 49 v -2 h -6.9953 v -3 z"
             id="path4575"
             sodipodi:nodetypes="ccccccccccccccccccccccccccccccccccccccccccccccccccccc" />
          <rect
             height="2"
             width="7"
             x="3"
             y="12.5"
             id="rect4577" />
        </g>
        <rect
           id="rect4589"
           y="42"
           x="37.5"
           width="2"
           height="7" />
        <rect
           id="rect4591"
           y="42"
           x="32.5"
           width="2"
           height="7" />
        <rect
           id="rect4593"
           y="42"
           x="27.5"
           width="2"
           height="7" />
        <rect
           id="rect4595"
           y="42"
           x="22.5"
           width="2"
           height="7" />
        <rect
           id="rect4597"
           y="42"
           x="17.5"
           width="2"
           height="7" />
        <rect
           id="rect4599"
           y="42"
           x="12.5"
           width="2"
           height="7" />
      </g>
      <text
         xml:space="preserve"
         style="font-style:normal;font-weight:normal;font-size:5.33333349px;line-height:1;font-family:sans-serif;letter-spacing:0px;word-spacing:0px;fill:#ffffff;fill-opacity:1;stroke:none"
         x="14.252604"
         y="19.344587"
         id="text4609"><tspan
           sodipodi:role="line"
           x="14.252604"
           y="19.344587"
           style="font-style:normal;font-variant:normal;font-weight:normal;font-stretch:normal;line-height:1;font-family:Consolas;-inkscape-font-specification:Consolas;fill:#b3b3b3"
           id="tspan4619">01000101</tspan><tspan
           sodipodi:role="line"
           x="14.252604"
           y="24.916079"
           style="font-style:normal;font-variant:normal;font-weight:normal;font-stretch:normal;line-height:1;font-family:Consolas;-inkscape-font-specification:Consolas;fill:#b3b3b3"
           id="tspan4641">01001100</tspan><tspan
           sodipodi:role="line"
           x="14.252604"
           y="30.48757"
           style="font-style:normal;font-variant:normal;font-weight:normal;font-stretch:normal;line-height:1;font-family:Consolas;-inkscape-font-specification:Consolas;fill:#b3b3b3"
           id="tspan4643">01001110</tspan><tspan
           sodipodi:role="line"
           x="14.252604"
           y="36.059059"
           style="font-style:normal;font-variant:normal;font-weight:normal;font-stretch:normal;line-height:1;font-family:Consolas;-inkscape-font-specification:Consolas;fill:#b3b3b3"
           id="tspan4645">00110001</tspan></text>
    </g>
    <path
       style="color:#000000;font-style:normal;font-variant:normal;font-weight:normal;font-stretch:normal;font-size:medium;line-height:normal;font-family:sans-serif;font-variant-ligatures:normal;font-variant-position:normal;font-variant-caps:normal;font-variant-numeric:normal;font-variant-alternates:normal;font-feature-settings:normal;text-indent:0;text-align:start;text-decoration:none;text-decoration-line:none;text-decoration-style:solid;text-decoration-color:#000000;letter-spacing:normal;word-spacing:normal;text-transform:none;writing-mode:lr-tb;direction:ltr;text-orientation:mixed;dominant-baseline:auto;baseline-shift:baseline;text-anchor:start;white-space:normal;shape-padding:0;clip-rule:nonzero;display:inline;overflow:visible;visibility:visible;opacity:1;isolation:auto;mix-blend-mode:normal;color-interpolation:sRGB;color-interpolation-filters:linearRGB;solid-color:#000000;solid-opacity:1;vector-effect:none;fill:#000000;fill-opacity:0.34806632;fill-rule:nonzero;stroke:none;stroke-width:0.99999994;stroke-linecap:butt;stroke-linejoin:miter;stroke-miterlimit:4;stroke-dasharray:none;stroke-dashoffset:0;stroke-opacity:1;color-rendering:auto;image-rendering:auto;shape-rendering:auto;text-rendering:auto;enable-background:accumulate"
       d="m 292.85352,491.04688 -9.03907,1.69726 -0.77148,25.07813 -24.72656,0.0644 -1.96289,9.6582 20.27539,20.63281 a 43.689098,44.194174 0 0 0 36.4082,-37.29687 z"
       id="rect4880"
       inkscape:connector-curvature="0"
       transform="scale(0.26458333)"
       inkscape:export-xdpi="549.33002"
       inkscape:export-ydpi="549.33002" />
    <g
       transform="matrix(0.26458333,0,0,0.26458333,64.519557,126.61521)"
       id="g4724"
       style="fill:#ffffff"
       inkscape:export-xdpi="549.33002"
       inkscape:export-ydpi="549.33002">
      <rect
         id="rect4684"
         y="17.5"
         x="3"
         width="7"
         height="2"
         style="fill:#ffffff" />
      <rect
         id="rect4686"
         y="22.5"
         x="3"
         width="7"
         height="2"
         style="fill:#ffffff" />
      <rect
         id="rect4688"
         y="27.5"
         x="3"
         width="7"
         height="2"
         style="fill:#ffffff" />
      <rect
         id="rect4690"
         y="32.5"
         x="3"
         width="7"
         height="2"
         style="fill:#ffffff" />
      <rect
         id="rect4692"
         y="37.5"
         x="3"
         width="7"
         height="2"
         style="fill:#ffffff" />
      <g
         id="g4712"
         style="fill:#ffffff">
        <g
           id="g4698"
           style="fill:#ffffff">
          <path
             d="m 313.29883,513.83984 v 6.99805 h -2.4961 v 32 h 32 v -2.49805 h 6.9961 v -2 h -6.9961 v -3 h 6.9961 v -2 h -6.9961 v -3 h 6.9961 v -2 h -6.9961 v -3 h 6.9961 v -2 h -6.9961 v -3 h 6.9961 v -2 h -6.9961 v -3 h 6.9961 v -2 h -6.9961 v -2.50195 h -2.5039 v -6.99805 h -2 v 6.99805 h -3 v -6.99805 h -2 v 6.99805 h -3 v -6.99805 h -2 v 6.99805 h -3 v -6.99805 h -2 v 6.99805 h -3 v -6.99805 h -2 v 6.99805 h -3 v -6.99805 z m 3.24414,12.89258 c 0.18229,0 0.34874,0.036 0.49805,0.10547 0.1493,0.0677 0.27691,0.17231 0.38281,0.31641 0.1059,0.14236 0.18685,0.32443 0.24414,0.54492 0.0573,0.22048 0.0859,0.48112 0.0859,0.7832 0,0.26042 -0.026,0.49957 -0.0781,0.71485 -0.0521,0.21354 -0.13043,0.39626 -0.23633,0.55078 -0.1059,0.15277 -0.2385,0.27235 -0.39648,0.35742 -0.15625,0.0833 -0.34093,0.125 -0.55274,0.125 -0.18229,0 -0.34678,-0.0339 -0.49609,-0.10156 -0.1493,-0.0695 -0.27691,-0.176 -0.38281,-0.31836 -0.1059,-0.14236 -0.1888,-0.32249 -0.2461,-0.54297 -0.0573,-0.22049 -0.0859,-0.48307 -0.0859,-0.78516 0,-0.26041 0.026,-0.49761 0.0781,-0.71289 0.0538,-0.21528 0.13412,-0.39996 0.23828,-0.55273 0.10591,-0.15452 0.23655,-0.27214 0.39453,-0.35547 0.15799,-0.0851 0.34267,-0.12891 0.55274,-0.12891 z m 5.875,0 c 0.18229,0 0.34874,0.036 0.49805,0.10547 0.1493,0.0677 0.27691,0.17231 0.38281,0.31641 0.1059,0.14236 0.18685,0.32443 0.24414,0.54492 0.0573,0.22048 0.0859,0.48112 0.0859,0.7832 0,0.26042 -0.026,0.49957 -0.0781,0.71485 -0.0521,0.21354 -0.13043,0.39626 -0.23633,0.55078 -0.1059,0.15277 -0.2385,0.27235 -0.39648,0.35742 -0.15625,0.0833 -0.34093,0.125 -0.55274,0.125 -0.18229,0 -0.34678,-0.0339 -0.49609,-0.10156 -0.1493,-0.0695 -0.27691,-0.176 -0.38281,-0.31836 -0.1059,-0.14236 -0.1888,-0.32249 -0.2461,-0.54297 -0.0573,-0.22049 -0.0859,-0.48307 -0.0859,-0.78516 0,-0.26041 0.026,-0.49761 0.0781,-0.71289 0.0538,-0.21528 0.13412,-0.39996 0.23828,-0.55273 0.10591,-0.15452 0.23655,-0.27214 0.39453,-0.35547 0.15799,-0.0851 0.34267,-0.12891 0.55274,-0.12891 z m 2.9375,0 c 0.18229,0 0.34874,0.036 0.49805,0.10547 0.1493,0.0677 0.27691,0.17231 0.38281,0.31641 0.1059,0.14236 0.18685,0.32443 0.24414,0.54492 0.0573,0.22048 0.0859,0.48112 0.0859,0.7832 0,0.26042 -0.026,0.49957 -0.0781,0.71485 -0.0521,0.21354 -0.13043,0.39626 -0.23633,0.55078 -0.1059,0.15277 -0.2385,0.27235 -0.39648,0.35742 -0.15625,0.0833 -0.34093,0.125 -0.55274,0.125 -0.18229,0 -0.34678,-0.0339 -0.49609,-0.10156 -0.1493,-0.0695 -0.27691,-0.176 -0.38281,-0.31836 -0.1059,-0.14236 -0.1888,-0.32249 -0.2461,-0.54297 -0.0573,-0.22049 -0.0859,-0.48307 -0.0859,-0.78516 0,-0.26041 0.026,-0.49761 0.0781,-0.71289 0.0538,-0.21528 0.13412,-0.39996 0.23828,-0.55273 0.10591,-0.15452 0.23655,-0.27214 0.39453,-0.35547 0.15799,-0.0851 0.34267,-0.12891 0.55274,-0.12891 z m 2.9375,0 c 0.18229,0 0.34874,0.036 0.49805,0.10547 0.1493,0.0677 0.27691,0.17231 0.38281,0.31641 0.1059,0.14236 0.18685,0.32443 0.24414,0.54492 0.0573,0.22048 0.0859,0.48112 0.0859,0.7832 0,0.26042 -0.026,0.49957 -0.0781,0.71485 -0.0521,0.21354 -0.13043,0.39626 -0.23633,0.55078 -0.1059,0.15277 -0.2385,0.27235 -0.39648,0.35742 -0.15625,0.0833 -0.34093,0.125 -0.55274,0.125 -0.18229,0 -0.34678,-0.0339 -0.49609,-0.10156 -0.1493,-0.0695 -0.27691,-0.176 -0.38281,-0.31836 -0.1059,-0.14236 -0.1888,-0.32249 -0.2461,-0.54297 -0.0573,-0.22049 -0.0859,-0.48307 -0.0859,-0.78516 0,-0.26041 0.026,-0.49761 0.0781,-0.71289 0.0538,-0.21528 0.13412,-0.39996 0.23828,-0.55273 0.10591,-0.15452 0.23655,-0.27214 0.39453,-0.35547 0.15799,-0.0851 0.34267,-0.12891 0.55274,-0.12891 z m 5.875,0 c 0.18229,0 0.34874,0.036 0.49805,0.10547 0.1493,0.0677 0.27691,0.17231 0.38281,0.31641 0.1059,0.14236 0.18685,0.32443 0.24414,0.54492 0.0573,0.22048 0.0859,0.48112 0.0859,0.7832 0,0.26042 -0.026,0.49957 -0.0781,0.71485 -0.0521,0.21354 -0.13043,0.39626 -0.23633,0.55078 -0.1059,0.15277 -0.2385,0.27235 -0.39648,0.35742 -0.15625,0.0833 -0.34093,0.125 -0.55274,0.125 -0.18229,0 -0.34678,-0.0339 -0.49609,-0.10156 -0.1493,-0.0695 -0.27691,-0.176 -0.38281,-0.31836 -0.1059,-0.14236 -0.1888,-0.32249 -0.2461,-0.54297 -0.0573,-0.22049 -0.0859,-0.48307 -0.0859,-0.78516 0,-0.26041 0.026,-0.49761 0.0781,-0.71289 0.0538,-0.21528 0.13412,-0.39996 0.23828,-0.55273 0.10591,-0.15452 0.23655,-0.27214 0.39453,-0.35547 0.15799,-0.0851 0.34267,-0.12891 0.55274,-0.12891 z m -14.74414,0.0312 h 0.40039 v 2.99805 h 0.75976 v 0.42187 h -2.13671 v -0.42187 h 0.875 v -2.48438 l -0.81641,0.44336 -0.16602,-0.38672 z m 11.75,0 h 0.40039 v 2.99805 h 0.75976 v 0.42187 h -2.13671 v -0.42187 h 0.875 v -2.48438 l -0.81641,0.44336 -0.16602,-0.38672 z m 5.875,0 h 0.40039 v 2.99805 h 0.75976 v 0.42187 h -2.13671 v -0.42187 h 0.875 v -2.48438 l -0.81641,0.44336 -0.16602,-0.38672 z m -20.53125,0.35742 c -0.11806,0 -0.227,0.0286 -0.32422,0.0859 -0.0955,0.0573 -0.17643,0.14323 -0.24414,0.25781 -0.0677,0.11285 -0.11979,0.25348 -0.15625,0.42188 -0.0365,0.16667 -0.0547,0.35959 -0.0547,0.58008 v 0.16211 c 0.002,0.0538 0.005,0.1059 0.01,0.15625 l 1.4414,-1.06446 c -0.026,-0.0885 -0.0597,-0.16927 -0.0996,-0.24218 -0.0399,-0.0729 -0.087,-0.13542 -0.14257,-0.1875 -0.0556,-0.0538 -0.12023,-0.0955 -0.19141,-0.125 -0.0712,-0.0295 -0.14974,-0.0449 -0.23828,-0.0449 z m 5.875,0 c -0.11806,0 -0.227,0.0286 -0.32422,0.0859 -0.0955,0.0573 -0.17643,0.14323 -0.24414,0.25781 -0.0677,0.11285 -0.11979,0.25348 -0.15625,0.42188 -0.0365,0.16667 -0.0547,0.35959 -0.0547,0.58008 v 0.16211 c 0.002,0.0538 0.005,0.1059 0.01,0.15625 l 1.4414,-1.06446 c -0.026,-0.0885 -0.0597,-0.16927 -0.0996,-0.24218 -0.0399,-0.0729 -0.087,-0.13542 -0.14257,-0.1875 -0.0556,-0.0538 -0.12023,-0.0955 -0.19141,-0.125 -0.0712,-0.0295 -0.14974,-0.0449 -0.23828,-0.0449 z m 2.9375,0 c -0.11806,0 -0.227,0.0286 -0.32422,0.0859 -0.0955,0.0573 -0.17643,0.14323 -0.24414,0.25781 -0.0677,0.11285 -0.11979,0.25348 -0.15625,0.42188 -0.0365,0.16667 -0.0547,0.35959 -0.0547,0.58008 v 0.16211 c 0.002,0.0538 0.005,0.1059 0.01,0.15625 l 1.4414,-1.06446 c -0.026,-0.0885 -0.0597,-0.16927 -0.0996,-0.24218 -0.0399,-0.0729 -0.087,-0.13542 -0.14257,-0.1875 -0.0556,-0.0538 -0.12023,-0.0955 -0.19141,-0.125 -0.0712,-0.0295 -0.14974,-0.0449 -0.23828,-0.0449 z m 2.9375,0 c -0.11806,0 -0.227,0.0286 -0.32422,0.0859 -0.0955,0.0573 -0.17643,0.14323 -0.24414,0.25781 -0.0677,0.11285 -0.11979,0.25348 -0.15625,0.42188 -0.0365,0.16667 -0.0547,0.35959 -0.0547,0.58008 v 0.16211 c 0.002,0.0538 0.005,0.1059 0.01,0.15625 l 1.4414,-1.06446 c -0.026,-0.0885 -0.0597,-0.16927 -0.0996,-0.24218 -0.0399,-0.0729 -0.087,-0.13542 -0.14257,-0.1875 -0.0556,-0.0538 -0.12023,-0.0955 -0.19141,-0.125 -0.0712,-0.0295 -0.14974,-0.0449 -0.23828,-0.0449 z m 5.875,0 c -0.11806,0 -0.227,0.0286 -0.32422,0.0859 -0.0955,0.0573 -0.17643,0.14323 -0.24414,0.25781 -0.0677,0.11285 -0.11979,0.25348 -0.15625,0.42188 -0.0365,0.16667 -0.0547,0.35959 -0.0547,0.58008 v 0.16211 c 0.002,0.0538 0.005,0.1059 0.01,0.15625 l 1.4414,-1.06446 c -0.026,-0.0885 -0.0597,-0.16927 -0.0996,-0.24218 -0.0399,-0.0729 -0.087,-0.13542 -0.14257,-0.1875 -0.0556,-0.0538 -0.12023,-0.0955 -0.19141,-0.125 -0.0712,-0.0295 -0.14974,-0.0449 -0.23828,-0.0449 z m -16.86719,1.03125 -1.44141,1.07032 c 0.026,0.0903 0.0597,0.17361 0.0996,0.25 0.0399,0.0764 0.087,0.14171 0.14258,0.19726 0.0573,0.0538 0.12218,0.0977 0.19336,0.12891 0.0729,0.0295 0.15603,0.043 0.24805,0.043 0.11805,0 0.22482,-0.0287 0.32031,-0.0859 0.0972,-0.0573 0.17839,-0.14106 0.24609,-0.25391 0.0677,-0.11284 0.1198,-0.25325 0.15625,-0.41992 0.0365,-0.1684 0.0547,-0.3635 0.0547,-0.58398 0,-0.059 -0.003,-0.11654 -0.008,-0.17383 -0.003,-0.059 -0.007,-0.11632 -0.0117,-0.17188 z m 5.875,0 -1.44141,1.07032 c 0.026,0.0903 0.0597,0.17361 0.0996,0.25 0.0399,0.0764 0.087,0.14171 0.14258,0.19726 0.0573,0.0538 0.12218,0.0977 0.19336,0.12891 0.0729,0.0295 0.15603,0.043 0.24805,0.043 0.11805,0 0.22482,-0.0287 0.32031,-0.0859 0.0972,-0.0573 0.17839,-0.14106 0.24609,-0.25391 0.0677,-0.11284 0.1198,-0.25325 0.15625,-0.41992 0.0365,-0.1684 0.0547,-0.3635 0.0547,-0.58398 0,-0.059 -0.003,-0.11654 -0.008,-0.17383 -0.003,-0.059 -0.007,-0.11632 -0.0117,-0.17188 z m 2.9375,0 -1.44141,1.07032 c 0.026,0.0903 0.0597,0.17361 0.0996,0.25 0.0399,0.0764 0.087,0.14171 0.14258,0.19726 0.0573,0.0538 0.12218,0.0977 0.19336,0.12891 0.0729,0.0295 0.15603,0.043 0.24805,0.043 0.11805,0 0.22482,-0.0287 0.32031,-0.0859 0.0972,-0.0573 0.17839,-0.14106 0.24609,-0.25391 0.0677,-0.11284 0.1198,-0.25325 0.15625,-0.41992 0.0365,-0.1684 0.0547,-0.3635 0.0547,-0.58398 0,-0.059 -0.003,-0.11654 -0.008,-0.17383 -0.003,-0.059 -0.007,-0.11632 -0.0117,-0.17188 z m 2.9375,0 -1.44141,1.07032 c 0.026,0.0903 0.0597,0.17361 0.0996,0.25 0.0399,0.0764 0.087,0.14171 0.14258,0.19726 0.0573,0.0538 0.12218,0.0977 0.19336,0.12891 0.0729,0.0295 0.15603,0.043 0.24805,0.043 0.11805,0 0.22482,-0.0287 0.32031,-0.0859 0.0972,-0.0573 0.17839,-0.14106 0.24609,-0.25391 0.0677,-0.11284 0.1198,-0.25325 0.15625,-0.41992 0.0365,-0.1684 0.0547,-0.3635 0.0547,-0.58398 0,-0.059 -0.003,-0.11654 -0.008,-0.17383 -0.003,-0.059 -0.007,-0.11632 -0.0117,-0.17188 z m 5.875,0 -1.44141,1.07032 c 0.026,0.0903 0.0597,0.17361 0.0996,0.25 0.0399,0.0764 0.087,0.14171 0.14258,0.19726 0.0573,0.0538 0.12218,0.0977 0.19336,0.12891 0.0729,0.0295 0.15603,0.043 0.24805,0.043 0.11805,0 0.22482,-0.0287 0.32031,-0.0859 0.0972,-0.0573 0.17839,-0.14106 0.24609,-0.25391 0.0677,-0.11284 0.1198,-0.25325 0.15625,-0.41992 0.0365,-0.1684 0.0547,-0.3635 0.0547,-0.58398 0,-0.059 -0.003,-0.11654 -0.008,-0.17383 -0.003,-0.059 -0.007,-0.11632 -0.0117,-0.17188 z m -18.35742,4.15235 c 0.18229,0 0.34874,0.0341 0.49805,0.10351 0.1493,0.0677 0.27691,0.17427 0.38281,0.31836 0.1059,0.14236 0.18685,0.32444 0.24414,0.54492 0.0573,0.22049 0.0859,0.48112 0.0859,0.78321 0,0.26041 -0.026,0.49761 -0.0781,0.71289 -0.0521,0.21354 -0.13043,0.39822 -0.23633,0.55273 -0.1059,0.15278 -0.2385,0.27236 -0.39648,0.35742 -0.15625,0.0833 -0.34093,0.125 -0.55274,0.125 -0.18229,0 -0.34678,-0.0339 -0.49609,-0.10156 -0.1493,-0.0694 -0.27691,-0.176 -0.38281,-0.31836 -0.1059,-0.14236 -0.1888,-0.32443 -0.2461,-0.54492 -0.0573,-0.22049 -0.0859,-0.48112 -0.0859,-0.7832 0,-0.26042 0.026,-0.49762 0.0781,-0.71289 0.0538,-0.21528 0.13412,-0.39996 0.23828,-0.55274 0.10591,-0.15451 0.23655,-0.27409 0.39453,-0.35742 0.15799,-0.0851 0.34267,-0.12695 0.55274,-0.12695 z m 5.875,0 c 0.18229,0 0.34874,0.0341 0.49805,0.10351 0.1493,0.0677 0.27691,0.17427 0.38281,0.31836 0.1059,0.14236 0.18685,0.32444 0.24414,0.54492 0.0573,0.22049 0.0859,0.48112 0.0859,0.78321 0,0.26041 -0.026,0.49761 -0.0781,0.71289 -0.0521,0.21354 -0.13043,0.39822 -0.23633,0.55273 -0.1059,0.15278 -0.2385,0.27236 -0.39648,0.35742 -0.15625,0.0833 -0.34093,0.125 -0.55274,0.125 -0.18229,0 -0.34678,-0.0339 -0.49609,-0.10156 -0.1493,-0.0694 -0.27691,-0.176 -0.38281,-0.31836 -0.1059,-0.14236 -0.1888,-0.32443 -0.2461,-0.54492 -0.0573,-0.22049 -0.0859,-0.48112 -0.0859,-0.7832 0,-0.26042 0.026,-0.49762 0.0781,-0.71289 0.0538,-0.21528 0.13412,-0.39996 0.23828,-0.55274 0.10591,-0.15451 0.23655,-0.27409 0.39453,-0.35742 0.15799,-0.0851 0.34267,-0.12695 0.55274,-0.12695 z m 2.9375,0 c 0.18229,0 0.34874,0.0341 0.49805,0.10351 0.1493,0.0677 0.27691,0.17427 0.38281,0.31836 0.1059,0.14236 0.18685,0.32444 0.24414,0.54492 0.0573,0.22049 0.0859,0.48112 0.0859,0.78321 0,0.26041 -0.026,0.49761 -0.0781,0.71289 -0.0521,0.21354 -0.13043,0.39822 -0.23633,0.55273 -0.1059,0.15278 -0.2385,0.27236 -0.39648,0.35742 -0.15625,0.0833 -0.34093,0.125 -0.55274,0.125 -0.18229,0 -0.34678,-0.0339 -0.49609,-0.10156 -0.1493,-0.0694 -0.27691,-0.176 -0.38281,-0.31836 -0.1059,-0.14236 -0.1888,-0.32443 -0.2461,-0.54492 -0.0573,-0.22049 -0.0859,-0.48112 -0.0859,-0.7832 0,-0.26042 0.026,-0.49762 0.0781,-0.71289 0.0538,-0.21528 0.13412,-0.39996 0.23828,-0.55274 0.10591,-0.15451 0.23655,-0.27409 0.39453,-0.35742 0.15799,-0.0851 0.34267,-0.12695 0.55274,-0.12695 z m 8.8125,0 c 0.18229,0 0.34874,0.0341 0.49805,0.10351 0.1493,0.0677 0.27691,0.17427 0.38281,0.31836 0.1059,0.14236 0.18685,0.32444 0.24414,0.54492 0.0573,0.22049 0.0859,0.48112 0.0859,0.78321 0,0.26041 -0.026,0.49761 -0.0781,0.71289 -0.0521,0.21354 -0.13043,0.39822 -0.23633,0.55273 -0.1059,0.15278 -0.2385,0.27236 -0.39648,0.35742 -0.15625,0.0833 -0.34093,0.125 -0.55274,0.125 -0.18229,0 -0.34678,-0.0339 -0.49609,-0.10156 -0.1493,-0.0694 -0.27691,-0.176 -0.38281,-0.31836 -0.1059,-0.14236 -0.1888,-0.32443 -0.2461,-0.54492 -0.0573,-0.22049 -0.0859,-0.48112 -0.0859,-0.7832 0,-0.26042 0.026,-0.49762 0.0781,-0.71289 0.0538,-0.21528 0.13412,-0.39996 0.23828,-0.55274 0.10591,-0.15451 0.23655,-0.27409 0.39453,-0.35742 0.15799,-0.0851 0.34267,-0.12695 0.55274,-0.12695 z m 2.9375,0 c 0.18229,0 0.34874,0.0341 0.49805,0.10351 0.1493,0.0677 0.27691,0.17427 0.38281,0.31836 0.1059,0.14236 0.18685,0.32444 0.24414,0.54492 0.0573,0.22049 0.0859,0.48112 0.0859,0.78321 0,0.26041 -0.026,0.49761 -0.0781,0.71289 -0.0521,0.21354 -0.13043,0.39822 -0.23633,0.55273 -0.1059,0.15278 -0.2385,0.27236 -0.39648,0.35742 -0.15625,0.0833 -0.34093,0.125 -0.55274,0.125 -0.18229,0 -0.34678,-0.0339 -0.49609,-0.10156 -0.1493,-0.0694 -0.27691,-0.176 -0.38281,-0.31836 -0.1059,-0.14236 -0.1888,-0.32443 -0.2461,-0.54492 -0.0573,-0.22049 -0.0859,-0.48112 -0.0859,-0.7832 0,-0.26042 0.026,-0.49762 0.0781,-0.71289 0.0538,-0.21528 0.13412,-0.39996 0.23828,-0.55274 0.10591,-0.15451 0.23655,-0.27409 0.39453,-0.35742 0.15799,-0.0851 0.34267,-0.12695 0.55274,-0.12695 z m -17.68164,0.0312 h 0.40039 v 2.99804 h 0.75976 v 0.42188 h -2.13671 v -0.42188 h 0.875 v -2.48437 l -0.81641,0.44141 -0.16602,-0.38477 z m 8.8125,0 h 0.40039 v 2.99804 h 0.75976 v 0.42188 h -2.13671 v -0.42188 h 0.875 v -2.48437 l -0.81641,0.44141 -0.16602,-0.38477 z m 2.9375,0 h 0.40039 v 2.99804 h 0.75976 v 0.42188 h -2.13671 v -0.42188 h 0.875 v -2.48437 l -0.81641,0.44141 -0.16602,-0.38477 z m -14.65625,0.35742 c -0.11806,0 -0.227,0.0286 -0.32422,0.0859 -0.0955,0.0573 -0.17643,0.14323 -0.24414,0.25781 -0.0677,0.11285 -0.11979,0.25347 -0.15625,0.42187 -0.0365,0.16667 -0.0547,0.3596 -0.0547,0.58008 v 0.16211 c 0.002,0.0538 0.005,0.10591 0.01,0.15625 l 1.4414,-1.0664 c -0.026,-0.0886 -0.0597,-0.16928 -0.0996,-0.24219 -0.0399,-0.0729 -0.087,-0.13542 -0.14257,-0.1875 -0.0556,-0.0538 -0.12023,-0.0955 -0.19141,-0.125 -0.0712,-0.0295 -0.14974,-0.043 -0.23828,-0.043 z m 5.875,0 c -0.11806,0 -0.227,0.0286 -0.32422,0.0859 -0.0955,0.0573 -0.17643,0.14323 -0.24414,0.25781 -0.0677,0.11285 -0.11979,0.25347 -0.15625,0.42187 -0.0365,0.16667 -0.0547,0.3596 -0.0547,0.58008 v 0.16211 c 0.002,0.0538 0.005,0.10591 0.01,0.15625 l 1.4414,-1.0664 c -0.026,-0.0886 -0.0597,-0.16928 -0.0996,-0.24219 -0.0399,-0.0729 -0.087,-0.13542 -0.14257,-0.1875 -0.0556,-0.0538 -0.12023,-0.0955 -0.19141,-0.125 -0.0712,-0.0295 -0.14974,-0.043 -0.23828,-0.043 z m 2.9375,0 c -0.11806,0 -0.227,0.0286 -0.32422,0.0859 -0.0955,0.0573 -0.17643,0.14323 -0.24414,0.25781 -0.0677,0.11285 -0.11979,0.25347 -0.15625,0.42187 -0.0365,0.16667 -0.0547,0.3596 -0.0547,0.58008 v 0.16211 c 0.002,0.0538 0.005,0.10591 0.01,0.15625 l 1.4414,-1.0664 c -0.026,-0.0886 -0.0597,-0.16928 -0.0996,-0.24219 -0.0399,-0.0729 -0.087,-0.13542 -0.14257,-0.1875 -0.0556,-0.0538 -0.12023,-0.0955 -0.19141,-0.125 -0.0712,-0.0295 -0.14974,-0.043 -0.23828,-0.043 z m 8.8125,0 c -0.11806,0 -0.227,0.0286 -0.32422,0.0859 -0.0955,0.0573 -0.17643,0.14323 -0.24414,0.25781 -0.0677,0.11285 -0.11979,0.25347 -0.15625,0.42187 -0.0365,0.16667 -0.0547,0.3596 -0.0547,0.58008 v 0.16211 c 0.002,0.0538 0.005,0.10591 0.01,0.15625 l 1.4414,-1.0664 c -0.026,-0.0886 -0.0597,-0.16928 -0.0996,-0.24219 -0.0399,-0.0729 -0.087,-0.13542 -0.14257,-0.1875 -0.0556,-0.0538 -0.12023,-0.0955 -0.19141,-0.125 -0.0712,-0.0295 -0.14974,-0.043 -0.23828,-0.043 z m 2.9375,0 c -0.11806,0 -0.227,0.0286 -0.32422,0.0859 -0.0955,0.0573 -0.17643,0.14323 -0.24414,0.25781 -0.0677,0.11285 -0.11979,0.25347 -0.15625,0.42187 -0.0365,0.16667 -0.0547,0.3596 -0.0547,0.58008 v 0.16211 c 0.002,0.0538 0.005,0.10591 0.01,0.15625 l 1.4414,-1.0664 c -0.026,-0.0886 -0.0597,-0.16928 -0.0996,-0.24219 -0.0399,-0.0729 -0.087,-0.13542 -0.14257,-0.1875 -0.0556,-0.0538 -0.12023,-0.0955 -0.19141,-0.125 -0.0712,-0.0295 -0.14974,-0.043 -0.23828,-0.043 z m -19.80469,1.03125 -1.44141,1.07031 c 0.026,0.0903 0.0597,0.17361 0.0996,0.25 0.0399,0.0764 0.087,0.14171 0.14258,0.19727 0.0573,0.0538 0.12218,0.0957 0.19336,0.12695 0.0729,0.0295 0.15603,0.0449 0.24805,0.0449 0.11805,0 0.22482,-0.0286 0.32031,-0.0859 0.0972,-0.0573 0.17839,-0.14301 0.24609,-0.25585 0.0677,-0.11285 0.1198,-0.25131 0.15625,-0.41797 0.0365,-0.16841 0.0547,-0.3635 0.0547,-0.58399 0,-0.059 -0.003,-0.11653 -0.008,-0.17383 -0.003,-0.059 -0.007,-0.11631 -0.0117,-0.17187 z m 5.875,0 -1.44141,1.07031 c 0.026,0.0903 0.0597,0.17361 0.0996,0.25 0.0399,0.0764 0.087,0.14171 0.14258,0.19727 0.0573,0.0538 0.12218,0.0957 0.19336,0.12695 0.0729,0.0295 0.15603,0.0449 0.24805,0.0449 0.11805,0 0.22482,-0.0286 0.32031,-0.0859 0.0972,-0.0573 0.17839,-0.14301 0.24609,-0.25585 0.0677,-0.11285 0.1198,-0.25131 0.15625,-0.41797 0.0365,-0.16841 0.0547,-0.3635 0.0547,-0.58399 0,-0.059 -0.003,-0.11653 -0.008,-0.17383 -0.003,-0.059 -0.007,-0.11631 -0.0117,-0.17187 z m 2.9375,0 -1.44141,1.07031 c 0.026,0.0903 0.0597,0.17361 0.0996,0.25 0.0399,0.0764 0.087,0.14171 0.14258,0.19727 0.0573,0.0538 0.12218,0.0957 0.19336,0.12695 0.0729,0.0295 0.15603,0.0449 0.24805,0.0449 0.11805,0 0.22482,-0.0286 0.32031,-0.0859 0.0972,-0.0573 0.17839,-0.14301 0.24609,-0.25585 0.0677,-0.11285 0.1198,-0.25131 0.15625,-0.41797 0.0365,-0.16841 0.0547,-0.3635 0.0547,-0.58399 0,-0.059 -0.003,-0.11653 -0.008,-0.17383 -0.003,-0.059 -0.007,-0.11631 -0.0117,-0.17187 z m 8.8125,0 -1.44141,1.07031 c 0.026,0.0903 0.0597,0.17361 0.0996,0.25 0.0399,0.0764 0.087,0.14171 0.14258,0.19727 0.0573,0.0538 0.12218,0.0957 0.19336,0.12695 0.0729,0.0295 0.15603,0.0449 0.24805,0.0449 0.11805,0 0.22482,-0.0286 0.32031,-0.0859 0.0972,-0.0573 0.17839,-0.14301 0.24609,-0.25585 0.0677,-0.11285 0.1198,-0.25131 0.15625,-0.41797 0.0365,-0.16841 0.0547,-0.3635 0.0547,-0.58399 0,-0.059 -0.003,-0.11653 -0.008,-0.17383 -0.003,-0.059 -0.007,-0.11631 -0.0117,-0.17187 z m 2.9375,0 -1.44141,1.07031 c 0.026,0.0903 0.0597,0.17361 0.0996,0.25 0.0399,0.0764 0.087,0.14171 0.14258,0.19727 0.0573,0.0538 0.12218,0.0957 0.19336,0.12695 0.0729,0.0295 0.15603,0.0449 0.24805,0.0449 0.11805,0 0.22482,-0.0286 0.32031,-0.0859 0.0972,-0.0573 0.17839,-0.14301 0.24609,-0.25585 0.0677,-0.11285 0.1198,-0.25131 0.15625,-0.41797 0.0365,-0.16841 0.0547,-0.3635 0.0547,-0.58399 0,-0.059 -0.003,-0.11653 -0.008,-0.17383 -0.003,-0.059 -0.007,-0.11631 -0.0117,-0.17187 z m -21.29492,4.15234 c 0.18229,0 0.34874,0.0341 0.49805,0.10352 0.1493,0.0677 0.27691,0.17426 0.38281,0.31836 0.1059,0.14236 0.18685,0.32248 0.24414,0.54297 0.0573,0.22048 0.0859,0.48307 0.0859,0.78515 0,0.26042 -0.026,0.49762 -0.0781,0.71289 -0.0521,0.21355 -0.13043,0.39822 -0.23633,0.55274 -0.1059,0.15278 -0.2385,0.2704 -0.39648,0.35547 -0.15625,0.0833 -0.34093,0.125 -0.55274,0.125 -0.18229,0 -0.34678,-0.0339 -0.49609,-0.10157 -0.1493,-0.0694 -0.27691,-0.17404 -0.38281,-0.3164 -0.1059,-0.14236 -0.1888,-0.32444 -0.2461,-0.54492 -0.0573,-0.22049 -0.0859,-0.48112 -0.0859,-0.78321 0,-0.26041 0.026,-0.49956 0.0781,-0.71484 0.0538,-0.21528 0.13412,-0.398 0.23828,-0.55078 0.10591,-0.15452 0.23655,-0.27409 0.39453,-0.35742 0.15799,-0.0851 0.34267,-0.12696 0.55274,-0.12696 z m 5.875,0 c 0.18229,0 0.34874,0.0341 0.49805,0.10352 0.1493,0.0677 0.27691,0.17426 0.38281,0.31836 0.1059,0.14236 0.18685,0.32248 0.24414,0.54297 0.0573,0.22048 0.0859,0.48307 0.0859,0.78515 0,0.26042 -0.026,0.49762 -0.0781,0.71289 -0.0521,0.21355 -0.13043,0.39822 -0.23633,0.55274 -0.1059,0.15278 -0.2385,0.2704 -0.39648,0.35547 -0.15625,0.0833 -0.34093,0.125 -0.55274,0.125 -0.18229,0 -0.34678,-0.0339 -0.49609,-0.10157 -0.1493,-0.0694 -0.27691,-0.17404 -0.38281,-0.3164 -0.1059,-0.14236 -0.1888,-0.32444 -0.2461,-0.54492 -0.0573,-0.22049 -0.0859,-0.48112 -0.0859,-0.78321 0,-0.26041 0.026,-0.49956 0.0781,-0.71484 0.0538,-0.21528 0.13412,-0.398 0.23828,-0.55078 0.10591,-0.15452 0.23655,-0.27409 0.39453,-0.35742 0.15799,-0.0851 0.34267,-0.12696 0.55274,-0.12696 z m 2.9375,0 c 0.18229,0 0.34874,0.0341 0.49805,0.10352 0.1493,0.0677 0.27691,0.17426 0.38281,0.31836 0.1059,0.14236 0.18685,0.32248 0.24414,0.54297 0.0573,0.22048 0.0859,0.48307 0.0859,0.78515 0,0.26042 -0.026,0.49762 -0.0781,0.71289 -0.0521,0.21355 -0.13043,0.39822 -0.23633,0.55274 -0.1059,0.15278 -0.2385,0.2704 -0.39648,0.35547 -0.15625,0.0833 -0.34093,0.125 -0.55274,0.125 -0.18229,0 -0.34678,-0.0339 -0.49609,-0.10157 -0.1493,-0.0694 -0.27691,-0.17404 -0.38281,-0.3164 -0.1059,-0.14236 -0.1888,-0.32444 -0.2461,-0.54492 -0.0573,-0.22049 -0.0859,-0.48112 -0.0859,-0.78321 0,-0.26041 0.026,-0.49956 0.0781,-0.71484 0.0538,-0.21528 0.13412,-0.398 0.23828,-0.55078 0.10591,-0.15452 0.23655,-0.27409 0.39453,-0.35742 0.15799,-0.0851 0.34267,-0.12696 0.55274,-0.12696 z m 11.75,0 c 0.18229,0 0.34874,0.0341 0.49805,0.10352 0.1493,0.0677 0.27691,0.17426 0.38281,0.31836 0.1059,0.14236 0.18685,0.32248 0.24414,0.54297 0.0573,0.22048 0.0859,0.48307 0.0859,0.78515 0,0.26042 -0.026,0.49762 -0.0781,0.71289 -0.0521,0.21355 -0.13043,0.39822 -0.23633,0.55274 -0.1059,0.15278 -0.2385,0.2704 -0.39648,0.35547 -0.15625,0.0833 -0.34093,0.125 -0.55274,0.125 -0.18229,0 -0.34678,-0.0339 -0.49609,-0.10157 -0.1493,-0.0694 -0.27691,-0.17404 -0.38281,-0.3164 -0.1059,-0.14236 -0.1888,-0.32444 -0.2461,-0.54492 -0.0573,-0.22049 -0.0859,-0.48112 -0.0859,-0.78321 0,-0.26041 0.026,-0.49956 0.0781,-0.71484 0.0538,-0.21528 0.13412,-0.398 0.23828,-0.55078 0.10591,-0.15452 0.23655,-0.27409 0.39453,-0.35742 0.15799,-0.0851 0.34267,-0.12696 0.55274,-0.12696 z m -17.68164,0.0312 h 0.40039 v 2.9961 h 0.75976 v 0.42187 h -2.13671 v -0.42187 h 0.875 v -2.48438 l -0.81641,0.44336 -0.16602,-0.38476 z m 8.8125,0 h 0.40039 v 2.9961 h 0.75976 v 0.42187 h -2.13671 v -0.42187 h 0.875 v -2.48438 l -0.81641,0.44336 -0.16602,-0.38476 z m 2.9375,0 h 0.40039 v 2.9961 h 0.75976 v 0.42187 h -2.13671 v -0.42187 h 0.875 v -2.48438 l -0.81641,0.44336 -0.16602,-0.38476 z m 2.9375,0 h 0.40039 v 2.9961 h 0.75976 v 0.42187 h -2.13671 v -0.42187 h 0.875 v -2.48438 l -0.81641,0.44336 -0.16602,-0.38476 z m -17.59375,0.35547 c -0.11806,0 -0.227,0.0286 -0.32422,0.0859 -0.0955,0.0573 -0.17643,0.14323 -0.24414,0.25781 -0.0677,0.11285 -0.11979,0.25347 -0.15625,0.42188 -0.0365,0.16666 -0.0547,0.36154 -0.0547,0.58203 v 0.16015 c 0.002,0.0538 0.005,0.10591 0.01,0.15625 l 1.4414,-1.06445 c -0.026,-0.0885 -0.0597,-0.16927 -0.0996,-0.24219 -0.0399,-0.0729 -0.087,-0.13541 -0.14257,-0.1875 -0.0556,-0.0538 -0.12023,-0.0955 -0.19141,-0.125 -0.0712,-0.0295 -0.14974,-0.0449 -0.23828,-0.0449 z m 5.875,0 c -0.11806,0 -0.227,0.0286 -0.32422,0.0859 -0.0955,0.0573 -0.17643,0.14323 -0.24414,0.25781 -0.0677,0.11285 -0.11979,0.25347 -0.15625,0.42188 -0.0365,0.16666 -0.0547,0.36154 -0.0547,0.58203 v 0.16015 c 0.002,0.0538 0.005,0.10591 0.01,0.15625 l 1.4414,-1.06445 c -0.026,-0.0885 -0.0597,-0.16927 -0.0996,-0.24219 -0.0399,-0.0729 -0.087,-0.13541 -0.14257,-0.1875 -0.0556,-0.0538 -0.12023,-0.0955 -0.19141,-0.125 -0.0712,-0.0295 -0.14974,-0.0449 -0.23828,-0.0449 z m 2.9375,0 c -0.11806,0 -0.227,0.0286 -0.32422,0.0859 -0.0955,0.0573 -0.17643,0.14323 -0.24414,0.25781 -0.0677,0.11285 -0.11979,0.25347 -0.15625,0.42188 -0.0365,0.16666 -0.0547,0.36154 -0.0547,0.58203 v 0.16015 c 0.002,0.0538 0.005,0.10591 0.01,0.15625 l 1.4414,-1.06445 c -0.026,-0.0885 -0.0597,-0.16927 -0.0996,-0.24219 -0.0399,-0.0729 -0.087,-0.13541 -0.14257,-0.1875 -0.0556,-0.0538 -0.12023,-0.0955 -0.19141,-0.125 -0.0712,-0.0295 -0.14974,-0.0449 -0.23828,-0.0449 z m 11.75,0 c -0.11806,0 -0.227,0.0286 -0.32422,0.0859 -0.0955,0.0573 -0.17643,0.14323 -0.24414,0.25781 -0.0677,0.11285 -0.11979,0.25347 -0.15625,0.42188 -0.0365,0.16666 -0.0547,0.36154 -0.0547,0.58203 v 0.16015 c 0.002,0.0538 0.005,0.10591 0.01,0.15625 l 1.4414,-1.06445 c -0.026,-0.0885 -0.0597,-0.16927 -0.0996,-0.24219 -0.0399,-0.0729 -0.087,-0.13541 -0.14257,-0.1875 -0.0556,-0.0538 -0.12023,-0.0955 -0.19141,-0.125 -0.0712,-0.0295 -0.14974,-0.0449 -0.23828,-0.0449 z m -19.80469,1.03125 -1.44141,1.07031 c 0.026,0.0903 0.0597,0.17362 0.0996,0.25 0.0399,0.0764 0.087,0.14367 0.14258,0.19922 0.0573,0.0538 0.12218,0.0957 0.19336,0.12696 0.0729,0.0295 0.15603,0.0449 0.24805,0.0449 0.11805,0 0.22482,-0.0286 0.32031,-0.0859 0.0972,-0.0573 0.17839,-0.14301 0.24609,-0.25586 0.0677,-0.11285 0.1198,-0.25325 0.15625,-0.41992 0.0365,-0.1684 0.0547,-0.36155 0.0547,-0.58203 0,-0.059 -0.003,-0.11849 -0.008,-0.17578 -0.003,-0.059 -0.007,-0.11632 -0.0117,-0.17188 z m 5.875,0 -1.44141,1.07031 c 0.026,0.0903 0.0597,0.17362 0.0996,0.25 0.0399,0.0764 0.087,0.14367 0.14258,0.19922 0.0573,0.0538 0.12218,0.0957 0.19336,0.12696 0.0729,0.0295 0.15603,0.0449 0.24805,0.0449 0.11805,0 0.22482,-0.0286 0.32031,-0.0859 0.0972,-0.0573 0.17839,-0.14301 0.24609,-0.25586 0.0677,-0.11285 0.1198,-0.25325 0.15625,-0.41992 0.0365,-0.1684 0.0547,-0.36155 0.0547,-0.58203 0,-0.059 -0.003,-0.11849 -0.008,-0.17578 -0.003,-0.059 -0.007,-0.11632 -0.0117,-0.17188 z m 2.9375,0 -1.44141,1.07031 c 0.026,0.0903 0.0597,0.17362 0.0996,0.25 0.0399,0.0764 0.087,0.14367 0.14258,0.19922 0.0573,0.0538 0.12218,0.0957 0.19336,0.12696 0.0729,0.0295 0.15603,0.0449 0.24805,0.0449 0.11805,0 0.22482,-0.0286 0.32031,-0.0859 0.0972,-0.0573 0.17839,-0.14301 0.24609,-0.25586 0.0677,-0.11285 0.1198,-0.25325 0.15625,-0.41992 0.0365,-0.1684 0.0547,-0.36155 0.0547,-0.58203 0,-0.059 -0.003,-0.11849 -0.008,-0.17578 -0.003,-0.059 -0.007,-0.11632 -0.0117,-0.17188 z m 11.75,0 -1.44141,1.07031 c 0.026,0.0903 0.0597,0.17362 0.0996,0.25 0.0399,0.0764 0.087,0.14367 0.14258,0.19922 0.0573,0.0538 0.12218,0.0957 0.19336,0.12696 0.0729,0.0295 0.15603,0.0449 0.24805,0.0449 0.11805,0 0.22482,-0.0286 0.32031,-0.0859 0.0972,-0.0573 0.17839,-0.14301 0.24609,-0.25586 0.0677,-0.11285 0.1198,-0.25325 0.15625,-0.41992 0.0365,-0.1684 0.0547,-0.36155 0.0547,-0.58203 0,-0.059 -0.003,-0.11849 -0.008,-0.17578 -0.003,-0.059 -0.007,-0.11632 -0.0117,-0.17188 z m -21.29492,4.15235 c 0.18229,0 0.34874,0.036 0.49805,0.10546 0.1493,0.0677 0.27691,0.17231 0.38281,0.31641 0.1059,0.14236 0.18685,0.32444 0.24414,0.54492 0.0573,0.22049 0.0859,0.48112 0.0859,0.78321 0,0.26041 -0.026,0.49956 -0.0781,0.71484 -0.0521,0.21354 -0.13043,0.39627 -0.23633,0.55078 -0.1059,0.15278 -0.2385,0.27235 -0.39648,0.35742 -0.15625,0.0833 -0.34093,0.125 -0.55274,0.125 -0.18229,0 -0.34678,-0.0338 -0.49609,-0.10156 -0.1493,-0.0694 -0.27691,-0.176 -0.38281,-0.31836 -0.1059,-0.14236 -0.1888,-0.32248 -0.2461,-0.54297 -0.0573,-0.22048 -0.0859,-0.48307 -0.0859,-0.78515 0,-0.26042 0.026,-0.49762 0.0781,-0.71289 0.0538,-0.21528 0.13412,-0.39996 0.23828,-0.55274 0.10591,-0.15451 0.23655,-0.27213 0.39453,-0.35547 0.15799,-0.0851 0.34267,-0.1289 0.55274,-0.1289 z m 2.9375,0 c 0.18229,0 0.34874,0.036 0.49805,0.10546 0.1493,0.0677 0.27691,0.17231 0.38281,0.31641 0.1059,0.14236 0.18685,0.32444 0.24414,0.54492 0.0573,0.22049 0.0859,0.48112 0.0859,0.78321 0,0.26041 -0.026,0.49956 -0.0781,0.71484 -0.0521,0.21354 -0.13043,0.39627 -0.23633,0.55078 -0.1059,0.15278 -0.2385,0.27235 -0.39648,0.35742 -0.15625,0.0833 -0.34093,0.125 -0.55274,0.125 -0.18229,0 -0.34678,-0.0338 -0.49609,-0.10156 -0.1493,-0.0694 -0.27691,-0.176 -0.38281,-0.31836 -0.1059,-0.14236 -0.1888,-0.32248 -0.2461,-0.54297 -0.0573,-0.22048 -0.0859,-0.48307 -0.0859,-0.78515 0,-0.26042 0.026,-0.49762 0.0781,-0.71289 0.0538,-0.21528 0.13412,-0.39996 0.23828,-0.55274 0.10591,-0.15451 0.23655,-0.27213 0.39453,-0.35547 0.15799,-0.0851 0.34267,-0.1289 0.55274,-0.1289 z m 8.8125,0 c 0.18229,0 0.34874,0.036 0.49805,0.10546 0.1493,0.0677 0.27691,0.17231 0.38281,0.31641 0.1059,0.14236 0.18685,0.32444 0.24414,0.54492 0.0573,0.22049 0.0859,0.48112 0.0859,0.78321 0,0.26041 -0.026,0.49956 -0.0781,0.71484 -0.0521,0.21354 -0.13043,0.39627 -0.23633,0.55078 -0.1059,0.15278 -0.2385,0.27235 -0.39648,0.35742 -0.15625,0.0833 -0.34093,0.125 -0.55274,0.125 -0.18229,0 -0.34678,-0.0338 -0.49609,-0.10156 -0.1493,-0.0694 -0.27691,-0.176 -0.38281,-0.31836 -0.1059,-0.14236 -0.1888,-0.32248 -0.2461,-0.54297 -0.0573,-0.22048 -0.0859,-0.48307 -0.0859,-0.78515 0,-0.26042 0.026,-0.49762 0.0781,-0.71289 0.0538,-0.21528 0.13412,-0.39996 0.23828,-0.55274 0.10591,-0.15451 0.23655,-0.27213 0.39453,-0.35547 0.15799,-0.0851 0.34267,-0.1289 0.55274,-0.1289 z m 2.9375,0 c 0.18229,0 0.34874,0.036 0.49805,0.10546 0.1493,0.0677 0.27691,0.17231 0.38281,0.31641 0.1059,0.14236 0.18685,0.32444 0.24414,0.54492 0.0573,0.22049 0.0859,0.48112 0.0859,0.78321 0,0.26041 -0.026,0.49956 -0.0781,0.71484 -0.0521,0.21354 -0.13043,0.39627 -0.23633,0.55078 -0.1059,0.15278 -0.2385,0.27235 -0.39648,0.35742 -0.15625,0.0833 -0.34093,0.125 -0.55274,0.125 -0.18229,0 -0.34678,-0.0338 -0.49609,-0.10156 -0.1493,-0.0694 -0.27691,-0.176 -0.38281,-0.31836 -0.1059,-0.14236 -0.1888,-0.32248 -0.2461,-0.54297 -0.0573,-0.22048 -0.0859,-0.48307 -0.0859,-0.78515 0,-0.26042 0.026,-0.49762 0.0781,-0.71289 0.0538,-0.21528 0.13412,-0.39996 0.23828,-0.55274 0.10591,-0.15451 0.23655,-0.27213 0.39453,-0.35547 0.15799,-0.0851 0.34267,-0.1289 0.55274,-0.1289 z m 2.9375,0 c 0.18229,0 0.34874,0.036 0.49805,0.10546 0.1493,0.0677 0.27691,0.17231 0.38281,0.31641 0.1059,0.14236 0.18685,0.32444 0.24414,0.54492 0.0573,0.22049 0.0859,0.48112 0.0859,0.78321 0,0.26041 -0.026,0.49956 -0.0781,0.71484 -0.0521,0.21354 -0.13043,0.39627 -0.23633,0.55078 -0.1059,0.15278 -0.2385,0.27235 -0.39648,0.35742 -0.15625,0.0833 -0.34093,0.125 -0.55274,0.125 -0.18229,0 -0.34678,-0.0338 -0.49609,-0.10156 -0.1493,-0.0694 -0.27691,-0.176 -0.38281,-0.31836 -0.1059,-0.14236 -0.1888,-0.32248 -0.2461,-0.54297 -0.0573,-0.22048 -0.0859,-0.48307 -0.0859,-0.78515 0,-0.26042 0.026,-0.49762 0.0781,-0.71289 0.0538,-0.21528 0.13412,-0.39996 0.23828,-0.55274 0.10591,-0.15451 0.23655,-0.27213 0.39453,-0.35547 0.15799,-0.0851 0.34267,-0.1289 0.55274,-0.1289 z m -11.80664,0.0312 h 0.40039 v 2.99804 h 0.75976 v 0.42188 h -2.13671 v -0.42188 h 0.875 v -2.48437 l -0.81641,0.44336 -0.16602,-0.38672 z m 2.9375,0 h 0.40039 v 2.99804 h 0.75976 v 0.42188 h -2.13671 v -0.42188 h 0.875 v -2.48437 l -0.81641,0.44336 -0.16602,-0.38672 z m 11.75,0 h 0.40039 v 2.99804 h 0.75976 v 0.42188 h -2.13671 v -0.42188 h 0.875 v -2.48437 l -0.81641,0.44336 -0.16602,-0.38672 z m -20.53125,0.35742 c -0.11806,0 -0.227,0.0286 -0.32422,0.0859 -0.0955,0.0573 -0.17643,0.14323 -0.24414,0.25781 -0.0677,0.11284 -0.11979,0.25347 -0.15625,0.42187 -0.0365,0.16667 -0.0547,0.35959 -0.0547,0.58008 v 0.16211 c 0.002,0.0538 0.005,0.1059 0.01,0.15625 l 1.4414,-1.06445 c -0.026,-0.0886 -0.0597,-0.16927 -0.0996,-0.24219 -0.0399,-0.0729 -0.087,-0.13542 -0.14257,-0.1875 -0.0556,-0.0538 -0.12023,-0.0955 -0.19141,-0.125 -0.0712,-0.0295 -0.14974,-0.0449 -0.23828,-0.0449 z m 2.9375,0 c -0.11806,0 -0.227,0.0286 -0.32422,0.0859 -0.0955,0.0573 -0.17643,0.14323 -0.24414,0.25781 -0.0677,0.11284 -0.11979,0.25347 -0.15625,0.42187 -0.0365,0.16667 -0.0547,0.35959 -0.0547,0.58008 v 0.16211 c 0.002,0.0538 0.005,0.1059 0.01,0.15625 l 1.4414,-1.06445 c -0.026,-0.0886 -0.0597,-0.16927 -0.0996,-0.24219 -0.0399,-0.0729 -0.087,-0.13542 -0.14257,-0.1875 -0.0556,-0.0538 -0.12023,-0.0955 -0.19141,-0.125 -0.0712,-0.0295 -0.14974,-0.0449 -0.23828,-0.0449 z m 8.8125,0 c -0.11806,0 -0.227,0.0286 -0.32422,0.0859 -0.0955,0.0573 -0.17643,0.14323 -0.24414,0.25781 -0.0677,0.11284 -0.11979,0.25347 -0.15625,0.42187 -0.0365,0.16667 -0.0547,0.35959 -0.0547,0.58008 v 0.16211 c 0.002,0.0538 0.005,0.1059 0.01,0.15625 l 1.4414,-1.06445 c -0.026,-0.0886 -0.0597,-0.16927 -0.0996,-0.24219 -0.0399,-0.0729 -0.087,-0.13542 -0.14257,-0.1875 -0.0556,-0.0538 -0.12023,-0.0955 -0.19141,-0.125 -0.0712,-0.0295 -0.14974,-0.0449 -0.23828,-0.0449 z m 2.9375,0 c -0.11806,0 -0.227,0.0286 -0.32422,0.0859 -0.0955,0.0573 -0.17643,0.14323 -0.24414,0.25781 -0.0677,0.11284 -0.11979,0.25347 -0.15625,0.42187 -0.0365,0.16667 -0.0547,0.35959 -0.0547,0.58008 v 0.16211 c 0.002,0.0538 0.005,0.1059 0.01,0.15625 l 1.4414,-1.06445 c -0.026,-0.0886 -0.0597,-0.16927 -0.0996,-0.24219 -0.0399,-0.0729 -0.087,-0.13542 -0.14257,-0.1875 -0.0556,-0.0538 -0.12023,-0.0955 -0.19141,-0.125 -0.0712,-0.0295 -0.14974,-0.0449 -0.23828,-0.0449 z m 2.9375,0 c -0.11806,0 -0.227,0.0286 -0.32422,0.0859 -0.0955,0.0573 -0.17643,0.14323 -0.24414,0.25781 -0.0677,0.11284 -0.11979,0.25347 -0.15625,0.42187 -0.0365,0.16667 -0.0547,0.35959 -0.0547,0.58008 v 0.16211 c 0.002,0.0538 0.005,0.1059 0.01,0.15625 l 1.4414,-1.06445 c -0.026,-0.0886 -0.0597,-0.16927 -0.0996,-0.24219 -0.0399,-0.0729 -0.087,-0.13542 -0.14257,-0.1875 -0.0556,-0.0538 -0.12023,-0.0955 -0.19141,-0.125 -0.0712,-0.0295 -0.14974,-0.0449 -0.23828,-0.0449 z m -16.86719,1.03125 -1.44141,1.07031 c 0.026,0.0903 0.0597,0.17361 0.0996,0.25 0.0399,0.0764 0.087,0.14171 0.14258,0.19727 0.0573,0.0538 0.12218,0.0977 0.19336,0.1289 0.0729,0.0295 0.15603,0.043 0.24805,0.043 0.11805,0 0.22482,-0.0286 0.32031,-0.0859 0.0972,-0.0573 0.17839,-0.14106 0.24609,-0.2539 0.0677,-0.11285 0.1198,-0.25326 0.15625,-0.41992 0.0365,-0.16841 0.0547,-0.3635 0.0547,-0.58399 0,-0.059 -0.003,-0.11653 -0.008,-0.17383 -0.003,-0.059 -0.007,-0.11632 -0.0117,-0.17187 z m 2.9375,0 -1.44141,1.07031 c 0.026,0.0903 0.0597,0.17361 0.0996,0.25 0.0399,0.0764 0.087,0.14171 0.14258,0.19727 0.0573,0.0538 0.12218,0.0977 0.19336,0.1289 0.0729,0.0295 0.15603,0.043 0.24805,0.043 0.11805,0 0.22482,-0.0286 0.32031,-0.0859 0.0972,-0.0573 0.17839,-0.14106 0.24609,-0.2539 0.0677,-0.11285 0.1198,-0.25326 0.15625,-0.41992 0.0365,-0.16841 0.0547,-0.3635 0.0547,-0.58399 0,-0.059 -0.003,-0.11653 -0.008,-0.17383 -0.003,-0.059 -0.007,-0.11632 -0.0117,-0.17187 z m 8.8125,0 -1.44141,1.07031 c 0.026,0.0903 0.0597,0.17361 0.0996,0.25 0.0399,0.0764 0.087,0.14171 0.14258,0.19727 0.0573,0.0538 0.12218,0.0977 0.19336,0.1289 0.0729,0.0295 0.15603,0.043 0.24805,0.043 0.11805,0 0.22482,-0.0286 0.32031,-0.0859 0.0972,-0.0573 0.17839,-0.14106 0.24609,-0.2539 0.0677,-0.11285 0.1198,-0.25326 0.15625,-0.41992 0.0365,-0.16841 0.0547,-0.3635 0.0547,-0.58399 0,-0.059 -0.003,-0.11653 -0.008,-0.17383 -0.003,-0.059 -0.007,-0.11632 -0.0117,-0.17187 z m 2.9375,0 -1.44141,1.07031 c 0.026,0.0903 0.0597,0.17361 0.0996,0.25 0.0399,0.0764 0.087,0.14171 0.14258,0.19727 0.0573,0.0538 0.12218,0.0977 0.19336,0.1289 0.0729,0.0295 0.15603,0.043 0.24805,0.043 0.11805,0 0.22482,-0.0286 0.32031,-0.0859 0.0972,-0.0573 0.17839,-0.14106 0.24609,-0.2539 0.0677,-0.11285 0.1198,-0.25326 0.15625,-0.41992 0.0365,-0.16841 0.0547,-0.3635 0.0547,-0.58399 0,-0.059 -0.003,-0.11653 -0.008,-0.17383 -0.003,-0.059 -0.007,-0.11632 -0.0117,-0.17187 z m 2.9375,0 -1.44141,1.07031 c 0.026,0.0903 0.0597,0.17361 0.0996,0.25 0.0399,0.0764 0.087,0.14171 0.14258,0.19727 0.0573,0.0538 0.12218,0.0977 0.19336,0.1289 0.0729,0.0295 0.15603,0.043 0.24805,0.043 0.11805,0 0.22482,-0.0286 0.32031,-0.0859 0.0972,-0.0573 0.17839,-0.14106 0.24609,-0.2539 0.0677,-0.11285 0.1198,-0.25326 0.15625,-0.41992 0.0365,-0.16841 0.0547,-0.3635 0.0547,-0.58399 0,-0.059 -0.003,-0.11653 -0.008,-0.17383 -0.003,-0.059 -0.007,-0.11632 -0.0117,-0.17187 z"
             transform="translate(-300.79822,-510.8391)"
             id="path4694"
             inkscape:connector-curvature="0"
             style="fill:#ffffff" />
          <rect
             id="rect4696"
             y="12.5"
             x="3"
             width="7"
             height="2"
             style="fill:#ffffff" />
        </g>
        <rect
           height="7"
           width="2"
           x="37.5"
           y="42"
           id="rect4700"
           style="fill:#ffffff" />
        <rect
           height="7"
           width="2"
           x="32.5"
           y="42"
           id="rect4702"
           style="fill:#ffffff" />
        <rect
           height="7"
           width="2"
           x="27.5"
           y="42"
           id="rect4704"
           style="fill:#ffffff" />
        <rect
           height="7"
           width="2"
           x="22.5"
           y="42"
           id="rect4706"
           style="fill:#ffffff" />
        <rect
           height="7"
           width="2"
           x="17.5"
           y="42"
           id="rect4708"
           style="fill:#ffffff" />
        <rect
           height="7"
           width="2"
           x="12.5"
           y="42"
           id="rect4710"
           style="fill:#ffffff" />
      </g>
    </g>
  </g>
</svg>
